<svg xmlns="http://www.w3.org/2000/svg" viewBox="0 0 128 128" role="img" aria-labelledby="title desc">
  <title>Brasil Sustenta</title>
  <desc>Monograma BS em um selo verde.</desc>
  <rect width="128" height="128" rx="28" fill="#009444" />
  <rect x="12" y="12" width="104" height="104" rx="22" fill="#0A0A0A" />
  <path d="M34 32h33c17 0 27 8 27 21 0 8-4 14-11 17 10 3 15 10 15 20 0 15-11 24-30 24H34V32Zm20 19v13h13c5 0 8-3 8-6 0-5-3-7-9-7H54Zm0 30v14h15c6 0 10-3 10-7 0-5-4-7-11-7H54Z" fill="#CCFF00" />
  <path d="M35 102h58" stroke="#fff" stroke-opacity=".2" stroke-width="4" stroke-linecap="round" />
</svg>
